<svg xmlns="http://www.w3.org/2000/svg" id="be3e1a43-0c7b-454d-900a-5620992e061d" width="997.861" height="450.808" data-name="Layer 1" viewBox="0 0 997.861 450.808"><rect width="30.159" height="104.398" x="871.992" y="181.558" fill="#f2f2f2"/><polygon fill="#f2f2f2" points="922.068 266.317 848.715 179.052 701.475 180.398 612.156 267.396 613.961 268.556 613.316 268.556 613.316 449.513 921.871 449.513 921.871 268.556 922.068 266.317"/><polygon fill="#e6e6e6" points="848.792 179.238 757.154 286.674 757.154 449.513 921.871 449.513 921.871 266.236 848.792 179.238"/><rect width="33.639" height="29.733" x="823.272" y="359.461" fill="#3f3d56"/><rect width="33.639" height="29.262" x="823.272" y="307.996" fill="#3f3d56"/><rect width="33.639" height="29.733" x="823.272" y="359.461" fill="#fff"/><rect width="33.639" height="29.262" x="823.272" y="307.996" fill="#fff"/><rect width="33.639" height="29.733" x="673.777" y="351.571" fill="#fff"/><rect width="33.639" height="29.262" x="673.777" y="300.106" fill="#fff"/><rect width="30.159" height="104.398" x="633.992" y="181.558" fill="#f2f2f2"/><polygon fill="#f2f2f2" points="684.068 266.317 610.715 179.052 463.475 180.398 374.156 267.396 375.961 268.556 375.316 268.556 375.316 449.513 683.871 449.513 683.871 268.556 684.068 266.317"/><polygon fill="#e6e6e6" points="610.792 179.238 519.154 286.674 519.154 449.513 683.871 449.513 683.871 266.236 610.792 179.238"/><rect width="33.639" height="29.733" x="585.272" y="359.461" fill="#3f3d56"/><rect width="33.639" height="29.262" x="585.272" y="307.996" fill="#3f3d56"/><rect width="33.639" height="29.733" x="585.272" y="359.461" fill="#fff"/><rect width="33.639" height="29.262" x="585.272" y="307.996" fill="#fff"/><rect width="33.639" height="29.733" x="435.777" y="351.571" fill="#fff"/><rect width="33.639" height="29.262" x="435.777" y="300.106" fill="#fff"/><rect width="40.3" height="139.501" x="380.154" y="91.46" fill="#f2f2f2"/><polygon fill="#f2f2f2" points="447.068 204.718 349.051 88.112 152.302 89.91 32.951 206.161 35.362 207.711 34.501 207.711 34.501 449.513 446.804 449.513 446.804 207.711 447.068 204.718"/><polygon fill="#e6e6e6" points="349.153 88.36 226.702 231.921 226.702 449.513 446.804 449.513 446.804 204.611 349.153 88.36"/><rect width="44.95" height="39.731" x="315.053" y="329.181" fill="#3f3d56"/><rect width="44.95" height="39.101" x="315.053" y="260.412" fill="#3f3d56"/><rect width="44.95" height="39.731" x="315.053" y="329.181" fill="#fff"/><rect width="44.95" height="39.101" x="315.053" y="260.412" fill="#fff"/><rect width="44.95" height="39.731" x="115.29" y="318.639" fill="#fff"/><rect width="44.95" height="39.101" x="115.29" y="249.869" fill="#fff"/><rect width="963.951" height="2" y="448.62" fill="#3f3d56"/><ellipse cx="151.872" cy="352.472" fill="#3f3d56" rx="29.099" ry="59.374"/><path fill="#0075bf" d="M255.62882,674.25425c-11.65458-69.92526-.11734-139.59789.00056-140.29293l2.267.384c-.11734.69167-11.58834,69.99825.00056,139.53164Z" transform="translate(-101.06939 -224.59595)"/><rect width="29.841" height="2.3" x="251.026" y="571.202" fill="#0075bf" transform="translate(-339.58156 -31.50095) rotate(-28.1416)"/><rect width="2.3" height="29.842" x="237.023" y="564.485" fill="#0075bf" transform="translate(-486.12468 291.37147) rotate(-61.84204)"/><ellipse cx="81.955" cy="260.903" fill="#0075bf" rx="56.915" ry="116.129"/><path fill="#3f3d56" d="M189.364,675.40405c-22.76459-136.58529-.22963-272.67316.00056-274.03181l2.267.384c-.22962,1.35528-22.69834,137.0771.00057,273.27052Z" transform="translate(-101.06939 -224.59595)"/><rect width="58.368" height="2.3" x="179.276" y="475.125" fill="#3f3d56" transform="translate(-301.0624 -69.97216) rotate(-28.1416)"/><rect width="2.3" height="58.368" x="152.989" y="460.889" fill="#3f3d56" transform="translate(-451.74248 170.111) rotate(-61.84258)"/><ellipse cx="216.754" cy="191.008" fill="#0075bf" rx="77.883" ry="158.914"/><path fill="#3f3d56" d="M326.9161,675.40405c-31.1399-186.83717-.3144-372.9922.00056-374.85051l2.267.384c-.3144,1.85494-31.07366,187.64393.00056,374.08922Z" transform="translate(-101.06939 -224.59595)"/><rect width="79.871" height="2.3" x="312.694" y="401.831" fill="#3f3d56" transform="translate(-249.45002 -10.63875) rotate(-28.1416)"/><rect width="2.3" height="79.871" x="277.146" y="381.926" fill="#3f3d56" transform="translate(-326.03583 243.55793) rotate(-61.84329)"/><ellipse cx="871.029" cy="352.472" fill="#3f3d56" rx="29.099" ry="59.374"/><path fill="#0075bf" d="M969.41153,674.25425c11.65459-69.92526.11734-139.59789-.00056-140.29293l-2.267.384c.11733.69167,11.58833,69.99825-.00056,139.53164Z" transform="translate(-101.06939 -224.59595)"/><rect width="2.3" height="29.841" x="957.944" y="557.431" fill="#0075bf" transform="translate(-99.02545 923.51928) rotate(-61.8584)"/><rect width="29.842" height="2.3" x="971.946" y="578.256" fill="#0075bf" transform="translate(-257.69773 309.6834) rotate(-28.15796)"/><ellipse cx="940.946" cy="260.903" fill="#0075bf" rx="56.915" ry="116.129"/><path fill="#3f3d56" d="M1035.67632,675.40405c22.76459-136.58529.22962-272.67316-.00056-274.03181l-2.267.384c.22962,1.35528,22.69834,137.0771-.00056,273.27052Z" transform="translate(-101.06939 -224.59595)"/><rect width="2.3" height="58.368" x="1015.43" y="447.091" fill="#3f3d56" transform="translate(16.06635 923.44761) rotate(-61.8584)"/><rect width="58.368" height="2.3" x="1041.717" y="488.923" fill="#3f3d56" transform="translate(-205.59609 338.75568) rotate(-28.15742)"/><ellipse cx="806.148" cy="191.008" fill="#0075bf" rx="77.883" ry="158.914"/><path fill="#3f3d56" d="M898.12426,675.40405c31.1399-186.83717.31439-372.9922-.00056-374.85051l-2.267.384c.3144,1.85494,31.07365,187.64393-.00056,374.08922Z" transform="translate(-101.06939 -224.59595)"/><rect width="2.3" height="79.871" x="871.261" y="363.045" fill="#3f3d56" transform="translate(4.52428 757.59634) rotate(-61.8584)"/><rect width="79.871" height="2.3" x="906.809" y="420.712" fill="#3f3d56" transform="translate(-188.10195 272.08136) rotate(-28.15671)"/><path fill="#3f3d56" d="M690.67376,326.06186l9.20569-7.3628c-7.15149-.789-10.0899,3.11127-11.29248,6.19837-5.587-2.32-11.66919.72046-11.66919.72046l18.41889,6.6867A13.93792,13.93792,0,0,0,690.67376,326.06186Z" transform="translate(-101.06939 -224.59595)"/><path fill="#3f3d56" d="M465.67376,261.06186l9.20569-7.3628c-7.15149-.789-10.0899,3.11127-11.29248,6.19837-5.587-2.32-11.66919.72046-11.66919.72046l18.41889,6.6867A13.93792,13.93792,0,0,0,465.67376,261.06186Z" transform="translate(-101.06939 -224.59595)"/><path fill="#3f3d56" d="M832.67376,232.06186l9.20569-7.3628c-7.15149-.789-10.0899,3.11127-11.29248,6.19837-5.587-2.32-11.66919.72046-11.66919.72046l18.41889,6.6867A13.93792,13.93792,0,0,0,832.67376,232.06186Z" transform="translate(-101.06939 -224.59595)"/><path fill="#3f3d56" d="M851.26034,661.648a13.91772,13.91772,0,0,0-6.96955,1.86975A14.98175,14.98175,0,0,0,819.26034,674.648h45.94952A13.99045,13.99045,0,0,0,851.26034,661.648Z" transform="translate(-101.06939 -224.59595)"/><path fill="#3f3d56" d="M384.26034,661.648a13.91772,13.91772,0,0,0-6.96955,1.86975A14.98175,14.98175,0,0,0,352.26034,674.648h45.94952A13.99045,13.99045,0,0,0,384.26034,661.648Z" transform="translate(-101.06939 -224.59595)"/><path fill="#3f3d56" d="M623.26034,661.648a13.91772,13.91772,0,0,0-6.96955,1.86975A14.98175,14.98175,0,0,0,591.26034,674.648h45.94952A13.99045,13.99045,0,0,0,623.26034,661.648Z" transform="translate(-101.06939 -224.59595)"/><polygon fill="#3f3d56" points="471.759 404.228 339.191 404.228 339.191 408.504 359.866 408.504 359.866 449.13 364.142 449.13 364.142 408.504 444.669 408.504 444.669 449.13 448.946 449.13 448.946 408.504 471.759 408.504 471.759 404.228"/><rect width="132.568" height="4.276" x="339.452" y="391.434" fill="#3f3d56"/><rect width="132.568" height="4.276" x="339.452" y="380.743" fill="#3f3d56"/><rect width="132.568" height="4.276" x="339.452" y="370.052" fill="#3f3d56"/><polygon fill="#3f3d56" points="678.759 404.228 546.191 404.228 546.191 408.504 566.866 408.504 566.866 449.13 571.142 449.13 571.142 408.504 651.669 408.504 651.669 449.13 655.946 449.13 655.946 408.504 678.759 408.504 678.759 404.228"/><rect width="132.568" height="4.276" x="546.452" y="391.434" fill="#3f3d56"/><rect width="132.568" height="4.276" x="546.452" y="380.743" fill="#3f3d56"/><rect width="132.568" height="4.276" x="546.452" y="370.052" fill="#3f3d56"/></svg>